<?xml version="1.0" encoding="UTF-8" standalone="no"?>
<svg width="14" height="14" viewBox="0 0 14 14" version="1.1" xmlns="http://www.w3.org/2000/svg" xmlns:sketch="http://www.bohemiancoding.com/sketch/ns">
 <g id="Page-1" fill="none" fill-rule="evenodd" sketch:type="MSPage">
  <g id="refresh" sketch:type="MSArtboardGroup" fill="#4a4a4a">
   <g sketch:type="MSLayerGroup" id="Shape">
    <path d="M12.0002593,6.53352696 L12.0002593,6.53352696 C12.0002593,9.47472987 9.75656368,11.866805 7.00045379,11.866805 C5.36610095,11.866805 3.91598491,11.0262677 3.00333208,9.73070553 L4.50027875,8.13327801 L0,8.13327801 L0,12.9340802 L1.57681287,11.2518438 C2.86011747,12.9282714 4.81211995,14 7.00045379,14 C10.8659778,14 14,10.6574071 14,6.53333333 L12.0002593,6.53333333 L12.0002593,6.53352696 Z" sketch:type="MSShapeGroup"/>
    <path d="M6.99972773,-8.8817842e-16 C3.13420374,-8.8817842e-16 0,3.34332115 0,7.46666667 L1.99992221,7.46666667 C1.99992221,4.52584507 4.24252875,2.13349928 6.99990924,2.13349928 C8.63262845,2.13349928 10.0843781,2.97334682 10.997394,4.26874098 L9.49990276,5.86654221 L14,5.86654221 L14,1.06771765 L12.4228241,2.74954235 C11.139701,1.07275132 9.1873355,-8.8817842e-16 6.99972773,-8.8817842e-16 Z" sketch:type="MSShapeGroup"/>
   </g>
  </g>
 </g>
</svg>
