<?xml version="1.0" encoding="UTF-8" standalone="no"?>
<svg width="24px" height="24px" viewBox="0 0 24 24" version="1.1" xmlns="http://www.w3.org/2000/svg" xmlns:xlink="http://www.w3.org/1999/xlink" xmlns:sketch="http://www.bohemiancoding.com/sketch/ns">
    <!-- Generator: Sketch 3.5.2 (25235) - http://www.bohemiancoding.com/sketch -->
    <title>variables_on</title>
    <desc>Created with Sketch.</desc>
    <defs></defs>
    <g id="Page-1" stroke="none" stroke-width="1" fill="none" fill-rule="evenodd" sketch:type="MSPage">
        <g id="variables_on" sketch:type="MSArtboardGroup" fill="#62666B">
            <path d="M3.58240732,20.9963951 C2.42916084,19.6949228 1.54379163,18.3237493 0.926273126,16.8828335 C0.308754621,15.4419177 0,13.9456046 0,12.3938491 C0,9.92677251 0.936487526,7.67425807 2.80949067,5.63623824 C3.93819999,4.39912445 5.50446516,3.18705716 7.50833315,2 L7.94999981,2.42905466 C6.64953038,3.48739478 5.73757964,4.33655697 5.21412025,4.9765667 C4.69066085,5.61657644 4.13858305,6.67668839 3.55787029,8.15693437 C3.206171,9.05080271 2.91786371,10.0608588 2.69293975,11.1871329 C2.46801579,12.313407 2.3555555,13.5451391 2.3555555,14.8823662 C2.3555555,16.0908762 2.50073151,17.1313233 2.7910879,18.0037388 C3.08144428,18.8761543 3.53741965,19.7628584 4.15902768,20.6638777 L3.58240732,20.9963951 Z M13.0038593,9.88387938 C13.8186147,8.77548263 14.47434,7.99782883 14.9710549,7.55089466 C15.4677698,7.10396049 15.9519702,6.88049676 16.4236707,6.88049676 C16.9882818,6.88049676 17.3777862,7.07356942 17.5921955,7.45972055 C17.7065472,7.65994706 17.7637221,7.9030756 17.7637221,8.18911347 C17.7637221,8.48230229 17.6457988,8.75045877 17.4099485,8.99359096 C17.1740983,9.23672315 16.8882235,9.35828742 16.5523156,9.35828742 C16.3450533,9.35828742 16.1109933,9.27962818 15.8501286,9.12230735 C15.589264,8.96498653 15.3909384,8.88632729 15.2551458,8.88632729 C14.9907077,8.88632729 14.7387805,9.02219324 14.4993568,9.29392922 C14.2599331,9.5656652 13.8472013,10.1413078 13.2611492,11.0208742 L13.464837,12.0935109 C13.5720417,12.6441338 13.6613776,13.0964244 13.7328473,13.4503962 C13.8043171,13.8043681 13.8829327,14.131519 13.9686964,14.4318588 C14.083048,14.8466137 14.1973979,15.1469489 14.3117496,15.3328736 C14.4261012,15.5187982 14.5940526,15.6117591 14.8156089,15.6117591 C15.0157243,15.6117591 15.2587178,15.4651669 15.5445969,15.1719781 C15.7018304,15.0146572 15.9412505,14.7250482 16.2628645,14.3031424 L16.7131218,14.614207 C16.334332,15.2506413 15.8429847,15.8548872 15.2390652,16.4269629 C14.6351456,16.9990387 14.0437422,17.2850723 13.464837,17.2850723 C12.9788426,17.2850723 12.5786179,17.0848488 12.2641509,16.6843957 C12.0854765,16.4698673 11.9282454,16.1766829 11.7924528,15.8048337 C11.7209831,15.6117581 11.6227136,15.2703055 11.4976415,14.7804657 C11.3725694,14.2906258 11.2921671,13.9885029 11.2564322,13.8740877 L11.1063465,14.1315205 C10.3987958,15.3471815 9.88064773,16.1373492 9.55188679,16.5020475 C9.05874539,17.0455195 8.48699582,17.3172514 7.83662093,17.3172514 C7.46497813,17.3172514 7.14158228,17.190324 6.86642367,16.9364653 C6.59126506,16.6826067 6.45368782,16.3697575 6.45368782,15.9979083 C6.45368782,15.6904176 6.55553071,15.4061717 6.75921955,15.1451621 C6.96290839,14.8841526 7.24699646,14.7536498 7.61149228,14.7536498 C7.83304856,14.7536498 8.10641633,14.832309 8.43160377,14.9896298 C8.75679122,15.1469507 8.96941059,15.2256099 9.06946827,15.2256099 C9.29102455,15.2256099 9.48220331,15.1272858 9.64301029,14.9306348 C9.80381727,14.7339838 10.1200663,14.245939 10.5917667,13.4664858 L11.0205832,12.7585456 C10.9491134,12.4582058 10.8722846,12.0899376 10.7900943,11.6537298 C10.7079041,11.2175221 10.6239284,10.7705946 10.5381647,10.312934 L10.3666381,9.40119288 C10.2451395,8.74330578 10.052174,8.31067999 9.78773585,8.10330254 C9.63764934,7.98173644 9.39108233,7.92095431 9.04802744,7.92095431 C9.01229256,7.92095431 8.92653012,7.92631744 8.79073756,7.93704386 C8.654945,7.94777028 8.51915448,7.96028425 8.38336192,7.97458614 L8.38336192,7.38463598 C9.02658984,7.30597557 9.73234321,7.20586381 10.5006432,7.08429772 C11.2689432,6.96273163 11.7817311,6.87692155 12.0390223,6.82686492 C12.2534316,7.11290279 12.4303166,7.45971851 12.5696827,7.86732247 C12.7090487,8.27492644 12.8144651,8.70755223 12.8859348,9.16521282 L13.0038593,9.88387938 Z M20.3688408,2 C21.7596773,3.58751018 22.7025684,5.08561105 23.1975426,6.49434756 C23.6925167,7.90308407 23.9400001,9.26174358 23.9400001,10.5703668 C23.9400001,12.165028 23.6270666,13.5397768 23.0011902,14.6946548 C22.3753138,15.8495327 21.5919573,16.8989183 20.6510974,17.8428433 C19.8656839,18.6294475 18.9002943,19.4106767 17.7548995,20.1865544 C16.6095048,20.9624321 16.171807,21.2323763 16.4417929,20.9963951 L16,20.556614 C17.23539,19.5626324 18.0780606,18.7974926 18.5280371,18.2611716 C19.2070925,17.4459637 19.8288689,16.3054048 20.3933849,14.8394607 C20.8269986,13.723913 21.1337961,12.6030189 21.3137867,11.4767448 C21.4937773,10.3504707 21.5837713,9.2295766 21.5837713,8.1140289 C21.5837713,7.04138689 21.4569616,6.05993417 21.2033385,5.1696413 C20.9497154,4.27934843 20.4752019,3.33364991 19.7797836,2.33251736 L20.3688408,2 Z" id="(x)-copy" sketch:type="MSShapeGroup"></path>
        </g>
    </g>
</svg>