<?xml version="1.0" encoding="UTF-8" standalone="no"?>
<svg width="24px" height="24px" viewBox="0 0 24 24" version="1.1" xmlns="http://www.w3.org/2000/svg" xmlns:xlink="http://www.w3.org/1999/xlink" xmlns:sketch="http://www.bohemiancoding.com/sketch/ns">
    <!-- Generator: Sketch 3.5.2 (25235) - http://www.bohemiancoding.com/sketch -->
    <title>hotspots_hover</title>
    <desc>Created with Sketch.</desc>
    <defs></defs>
    <g id="Page-1" stroke="none" stroke-width="1" fill="none" fill-rule="evenodd" sketch:type="MSPage">
        <g id="hotspots_hover" sketch:type="MSArtboardGroup" fill="#138CDE">
            <path d="M10.2600169,19.1602222 C7.96869248,19.1439638 6.84386902,17.3383469 6.84386902,15.4953111 C6.84386902,13.5882366 8.46249009,11.826828 10.5143142,11.826828 C12.5661382,11.826828 14.1882121,12.7932695 14.2045264,14.9307568 C14.2052709,15.0283039 14.2045264,15.1095983 14.1882118,15.2071482 L15.9836055,15.6786396 C15.9999201,15.5160564 15.9999201,15.3697315 15.9999201,15.2071483 C16.0162346,12.166843 13.5325041,10 10.4979998,10 C7.46349545,10 5,12.4550059 5,15.4953112 C5,18.5356166 7.16975376,21 10.2205726,21 C10.383718,21 10.5468634,20.9837417 10.7100088,20.9837417 L10.537364,19.1439638 C10.4394768,19.1439638 10.3579016,19.1609167 10.2600169,19.1602222 Z M15.4241629,20.2605722 C15.346898,20.2915532 13.7706948,23.8078983 13.7706948,23.8078983 C13.6316181,24.133199 13.106217,24.0247654 12.9671402,23.6375028 L10.0310755,15.5049865 C9.90745171,15.1796858 10.1701522,14.9163472 10.5101176,15.0247807 L18.6383811,17.9369961 C19.0247054,18.0919012 19.1328762,18.6030879 18.8083638,18.757993 L15.4241629,20.2605722 Z" id="Shape" sketch:type="MSShapeGroup"></path>
        </g>
    </g>
</svg>