<?xml version="1.0" encoding="UTF-8" standalone="no"?>
<svg width="10px" height="13px" viewBox="0 0 10 13" version="1.1" xmlns="http://www.w3.org/2000/svg" xmlns:xlink="http://www.w3.org/1999/xlink" xmlns:sketch="http://www.bohemiancoding.com/sketch/ns">
    <!-- Generator: sketchtool 3.4 (375) - http://www.bohemiancoding.com/sketch -->
    <title>Note Copy</title>
    <desc>Created with sketchtool.</desc>
    <defs></defs>
    <g id="Axshare---Web-View" stroke="none" stroke-width="1" fill="none" fill-rule="evenodd" sketch:type="MSPage">
        <g id="Share-Pages" sketch:type="MSArtboardGroup" transform="translate(-191.000000, -354.000000)" fill="#62666B">
            <g id="Left-Display-Panel" sketch:type="MSLayerGroup" transform="translate(174.000000, 125.000000)">
                <g id="Pages" transform="translate(12.000000, 88.632812)" sketch:type="MSShapeGroup">
                    <path d="M7,141.36569 L7,141.36569 L7,152.368685 C7,151.816811 6.55191214,151.367188 5.99539757,151.367188 L14.0046024,151.367188 C13.4449244,151.367188 13,151.810421 13,152.368685 L13,141.36569 C13,141.917564 13.4480879,142.367188 14.0046024,142.367188 L5.99539757,142.367188 C6.55507559,142.367188 7,141.923954 7,141.36569 L7,141.36569 Z M5,141.36569 C5,140.814232 5.4556644,140.367188 5.99539757,140.367188 L14.0046024,140.367188 C14.5543453,140.367188 15,140.814677 15,141.36569 L15,152.368685 C15,152.920143 14.5443356,153.367188 14.0046024,153.367188 L5.99539757,153.367188 C5.44565467,153.367188 5,152.919698 5,152.368685 L5,141.36569 L5,141.36569 Z M8,149.367188 L12,149.367188 L12,148.367188 L8,148.367188 L8,149.367188 L8,149.367188 Z M8,147.367188 L12,147.367188 L12,146.367188 L8,146.367188 L8,147.367188 L8,147.367188 Z M8,145.367188 L12,145.367188 L12,144.367188 L8,144.367188 L8,145.367188 L8,145.367188 Z" id="Note-Copy"></path>
                </g>
            </g>
        </g>
    </g>
</svg>