<?xml version="1.0" encoding="UTF-8" standalone="no"?>
<svg width="24px" height="24px" viewBox="0 0 24 24" version="1.1" xmlns="http://www.w3.org/2000/svg" xmlns:xlink="http://www.w3.org/1999/xlink" xmlns:sketch="http://www.bohemiancoding.com/sketch/ns">
    <!-- Generator: Sketch 3.5.2 (25235) - http://www.bohemiancoding.com/sketch -->
    <title>share_on</title>
    <desc>Created with Sketch.</desc>
    <defs></defs>
    <g id="Page-1" stroke="none" stroke-width="1" fill="none" fill-rule="evenodd" sketch:type="MSPage">
        <g id="share_on" sketch:type="MSArtboardGroup" fill="#138CDE">
            <g id="Shape-+-arrows110-copy" sketch:type="MSLayerGroup" transform="translate(4.000000, 7.000000)">
                <path d="M3,6.5138325 L3,14.988934 L13,14.988934 L13,6.011066 L11.0463867,6.011066 L11.0463867,4 L15,4 L15,17 L1,17 L1,4 L3,6.5138325 Z" id="Shape" sketch:type="MSShapeGroup" transform="translate(8.000000, 10.500000) scale(-1, 1) translate(-8.000000, -10.500000) "></path>
                <g id="arrows110-copy" transform="translate(8.263140, 7.580127) rotate(-30.000000) translate(-8.263140, -7.580127) translate(1.763140, 2.580127)" sketch:type="MSShapeGroup">
                    <g id="Capa_1" transform="translate(6.373914, 4.615044) rotate(-4.000000) translate(-6.373914, -4.615044) translate(0.373914, 0.615044)">
                        <path d="M0.908391223,7.22924417 C0.908391223,3.43005369 5.41839122,2.62076798 6.46601027,2.48405369 L6.46601027,0.740815597 C6.46601027,0.654910835 6.51315313,0.576339406 6.58910551,0.534958454 C6.66610551,0.49514893 6.75724837,0.500910835 6.82796265,0.547529882 L11.6480579,3.79200607 C11.7114388,3.83495845 11.7496769,3.90619655 11.7496769,3.98529179 C11.7496769,4.06229179 11.7114388,4.13405369 11.6480579,4.17700607 L6.8305817,7.42095845 C6.75881979,7.46810131 6.66662932,7.47333941 6.59120075,7.43300607 C6.51472456,7.39214893 6.4675817,7.31305369 6.4675817,7.22662512 L6.4675817,5.35138703 C5.70962932,5.35610131 5.08210551,5.38962512 4.55986741,5.45248226 C2.05343884,5.74948226 1.38348646,7.25438703 1.35624837,7.3188156 C1.31905789,7.40524417 1.23420075,7.46076798 1.14148646,7.46076798 C1.12577218,7.4618156 1.11005789,7.46076798 1.09591503,7.45762512 C0.985915033,7.4345775 0.908391223,7.33924417 0.908391223,7.22924417 Z" id="Shape"></path>
                    </g>
                </g>
            </g>
        </g>
    </g>
</svg>