<?xml version="1.0" encoding="UTF-8" standalone="no"?>
<svg width="13px" height="13px" viewBox="0 0 13 13" version="1.1" xmlns="http://www.w3.org/2000/svg" xmlns:xlink="http://www.w3.org/1999/xlink" xmlns:sketch="http://www.bohemiancoding.com/sketch/ns">
    <!-- Generator: Sketch 3.5.2 (25235) - http://www.bohemiancoding.com/sketch -->
    <title>note</title>
    <desc>Created with Sketch.</desc>
    <defs></defs>
    <g id="Page-1" stroke="none" stroke-width="1" fill="none" fill-rule="evenodd" sketch:type="MSPage">
        <g id="note" sketch:type="MSArtboardGroup">
            <rect id="Rectangle-40" fill="#4A4A4A" sketch:type="MSShapeGroup" x="0" y="0" width="13" height="13"></rect>
            <path d="M2.81818182,4 L10.1818182,4 L11,4 L11,3 L10.1818182,3 L2.81818182,3 L2,3 L2,4 L2.81818182,4 L2.81818182,4 Z" id="Shape" fill="#FFFFFF" sketch:type="MSShapeGroup"></path>
            <path d="M2.81818182,7 L10.1818182,7 L11,7 L11,6 L10.1818182,6 L2.81818182,6 L2,6 L2,7 L2.81818182,7 L2.81818182,7 Z" id="Shape-Copy" fill="#FFFFFF" sketch:type="MSShapeGroup"></path>
            <path d="M2.81818182,10 L10.1818182,10 L11,10 L11,9 L10.1818182,9 L2.81818182,9 L2,9 L2,10 L2.81818182,10 L2.81818182,10 Z" id="Shape-Copy-2" fill="#FFFFFF" sketch:type="MSShapeGroup"></path>
        </g>
    </g>
</svg>