<?xml version="1.0" encoding="UTF-8" standalone="no"?>
<svg width="25" height="29" viewBox="0 0 25 29" version="1.1" xmlns="http://www.w3.org/2000/svg">
 <g id="Page-1" fill="none" fill-rule="evenodd">
  <g id="notes_off" fill="#62666b">
   <path d="M23.0173953,0 C24.1123577,0 25,0.894046985 25,1.98073526 L25,26.8366451 C25,27.930575 24.1102368,28.8173804 23.0173953,28.8173804 L1.98260467,28.8173804 C0.887642344,28.8173804 0,27.9233334 0,26.8366451 L0,1.98073526 C0,0.886805381 0.889763236,0 1.98260467,0 L23.0173953,0 Z M3,3 L22,3 L22,26 L3,26 L3,3 Z" id="Path"/>
   <path d="M19,23 L19,21 L5,21 L5,23 L19,23 Z M19,18 L19,16 L5,16 L5,18 L19,18 Z M6.0989011,13 L11.9010989,13 L13,13 L13,11 L11.9010989,11 L6.0989011,11 L5,11 L5,13 L6.0989011,13 L6.0989011,13 Z M11.9010989,8.06681692 L13,8.06681692 L13,6.06681692 L11.9010989,6.06681692 L6.0989011,6.06681692 L5,6.06681692 L5,8.06681692 L6.0989011,8.06681692 L11.9010989,8.06681692 Z M15,6 L19,6 L19,13 L15,13 L15,6 Z" id="Notes-Icon"/>
  </g>
 </g>
</svg>
